<svg xmlns="http://www.w3.org/2000/svg" viewBox="0 0 880 526" role="img" aria-label="Beplantingsplan Vijverrand, 5 m², van boven">
<title>Beplantingsplan Vijverrand</title>
<style>
.p-t{font:600 10.5px Montserrat,system-ui,sans-serif;letter-spacing:.12em;text-transform:uppercase;fill:var(--inkt,#202020)}
.p-k{font:700 22px Syne,system-ui,sans-serif;letter-spacing:-.02em;fill:var(--inkt,#202020)}
.p-n{font:500 13px Montserrat,system-ui,sans-serif;fill:var(--inkt,#202020);font-variant-numeric:tabular-nums}
.p-l{font-style:italic;fill:var(--gedempt,#5e5e5b)}
.p-c{font:700 10px Montserrat,system-ui,sans-serif;fill:#202020;text-anchor:middle}
.p-bed{fill:var(--bed,#e3ddd0);stroke:var(--inkt,#202020);stroke-width:1.3}
.p-lijn{stroke:var(--inkt,#202020);stroke-width:1.3;fill:none}
.p-maat{stroke:var(--inkt,#202020);stroke-width:.9;fill:none}
.p-water{stroke:#607a59;stroke-width:1.1;stroke-dasharray:14 6;fill:none}
.p-kei{fill:var(--vlak,#dcd9d2);stroke:var(--inkt,#202020);stroke-width:1}
.p-kroon{fill:none;stroke:var(--inkt,#202020);stroke-width:1;stroke-dasharray:3 5}
.p-stam{fill:var(--inkt,#202020)}
</style>
<text x="40" y="32" class="p-k">Vijverrand</text>
<text x="840" y="30" class="p-t" text-anchor="end">Plan van boven · 5 m² · 36 planten</text>
<rect x="40" y="70" width="800" height="250" rx="6" class="p-bed"/>
<circle cx="275.9" cy="139.6" r="14" fill="#b45a95" fill-opacity=".85"/><text x="275.9" y="143.1" class="p-c">B</text><circle cx="563.5" cy="174.9" r="16" fill="#d9b23c" fill-opacity=".85"/><text x="563.5" y="178.4" class="p-c">A</text><circle cx="155.8" cy="104.3" r="16" fill="#5c6fb8" fill-opacity=".85"/><text x="155.8" y="107.8" class="p-c">E</text><circle cx="784.7" cy="148.3" r="14" fill="#b45a95" fill-opacity=".85"/><text x="784.7" y="151.8" class="p-c">B</text><circle cx="569.9" cy="269.4" r="16" fill="#d9b23c" fill-opacity=".85"/><text x="569.9" y="272.9" class="p-c">A</text><circle cx="707.2" cy="167.6" r="14" fill="#b45a95" fill-opacity=".85"/><text x="707.2" y="171.1" class="p-c">B</text><circle cx="642.7" cy="208.6" r="16" fill="#d9b23c" fill-opacity=".85"/><text x="642.7" y="212.1" class="p-c">A</text><circle cx="153.6" cy="213.2" r="16" fill="#d9b23c" fill-opacity=".85"/><text x="153.6" y="216.7" class="p-c">A</text><circle cx="643" cy="279.6" r="16" fill="#a7a84f" fill-opacity=".85"/><text x="643" y="283.1" class="p-c">C</text><circle cx="383.6" cy="224.8" r="16" fill="#a7a84f" fill-opacity=".85"/><text x="383.6" y="228.3" class="p-c">C</text><circle cx="332.8" cy="270.1" r="12" fill="#7aa0cf" fill-opacity=".85"/><text x="332.8" y="273.6" class="p-c">D</text><circle cx="318.8" cy="198.1" r="16" fill="#a7a84f" fill-opacity=".85"/><text x="318.8" y="201.6" class="p-c">C</text><circle cx="482.3" cy="115.8" r="16" fill="#5c6fb8" fill-opacity=".85"/><text x="482.3" y="119.3" class="p-c">E</text><circle cx="214.1" cy="283.8" r="12" fill="#7aa0cf" fill-opacity=".85"/><text x="214.1" y="287.3" class="p-c">D</text><circle cx="428.2" cy="145.4" r="16" fill="#5c6fb8" fill-opacity=".85"/><text x="428.2" y="148.9" class="p-c">E</text><circle cx="219" cy="163.4" r="14" fill="#b45a95" fill-opacity=".85"/><text x="219" y="166.9" class="p-c">B</text><circle cx="461.2" cy="253.5" r="12" fill="#7aa0cf" fill-opacity=".85"/><text x="461.2" y="257" class="p-c">D</text><circle cx="756.2" cy="277.1" r="16" fill="#a7a84f" fill-opacity=".85"/><text x="756.2" y="280.6" class="p-c">C</text><circle cx="83.1" cy="111.9" r="16" fill="#5c6fb8" fill-opacity=".85"/><text x="83.1" y="115.4" class="p-c">E</text><circle cx="254.3" cy="236.9" r="16" fill="#d9b23c" fill-opacity=".85"/><text x="254.3" y="240.4" class="p-c">A</text><circle cx="569.7" cy="98.8" r="16" fill="#5c6fb8" fill-opacity=".85"/><text x="569.7" y="102.3" class="p-c">E</text><circle cx="146.2" cy="291.1" r="12" fill="#7aa0cf" fill-opacity=".85"/><text x="146.2" y="294.6" class="p-c">D</text><circle cx="497.6" cy="187.7" r="16" fill="#a7a84f" fill-opacity=".85"/><text x="497.6" y="191.2" class="p-c">C</text><circle cx="629.4" cy="98.8" r="14" fill="#b45a95" fill-opacity=".85"/><text x="629.4" y="102.3" class="p-c">B</text><circle cx="368.8" cy="164.9" r="16" fill="#a7a84f" fill-opacity=".85"/><text x="368.8" y="168.4" class="p-c">C</text><circle cx="331.2" cy="114" r="14" fill="#b45a95" fill-opacity=".85"/><text x="331.2" y="117.5" class="p-c">B</text><circle cx="97.8" cy="250.6" r="12" fill="#7aa0cf" fill-opacity=".85"/><text x="97.8" y="254.1" class="p-c">D</text><circle cx="783.7" cy="226" r="16" fill="#a7a84f" fill-opacity=".85"/><text x="783.7" y="229.5" class="p-c">C</text><circle cx="81.9" cy="174.1" r="16" fill="#5c6fb8" fill-opacity=".85"/><text x="81.9" y="177.6" class="p-c">E</text><circle cx="716.9" cy="226.3" r="16" fill="#a7a84f" fill-opacity=".85"/><text x="716.9" y="229.8" class="p-c">C</text><circle cx="275.7" cy="291" r="12" fill="#7aa0cf" fill-opacity=".85"/><text x="275.7" y="294.5" class="p-c">D</text><circle cx="697.9" cy="107.1" r="14" fill="#b45a95" fill-opacity=".85"/><text x="697.9" y="110.6" class="p-c">B</text><circle cx="230.7" cy="100.7" r="14" fill="#b45a95" fill-opacity=".85"/><text x="230.7" y="104.2" class="p-c">B</text><circle cx="392.4" cy="285.2" r="12" fill="#7aa0cf" fill-opacity=".85"/><text x="392.4" y="288.7" class="p-c">D</text><circle cx="515.2" cy="289.8" r="12" fill="#7aa0cf" fill-opacity=".85"/><text x="515.2" y="293.3" class="p-c">D</text><circle cx="389" cy="101" r="14" fill="#b45a95" fill-opacity=".85"/><text x="389" y="104.5" class="p-c">B</text><path d="M40 320H840" class="p-lijn"/><path d="M40 334H840M40 344H840" class="p-water"/><text x="840" y="364" class="p-t" text-anchor="end">Vijver · waterlelie los erbij</text>
<path d="M40 56H840M40 51v10M840 51v10" class="p-maat"/>
<text x="440" y="50" class="p-t" text-anchor="middle">4,00 m</text>
<path d="M26 70V320M21 70h10M21 320h10" class="p-maat"/>
<text x="20" y="195" class="p-t" text-anchor="middle" transform="rotate(-90 20 195)">1,25 m</text>
<text x="40" y="380" class="p-t"></text>
<circle cx="50" cy="396" r="10" fill="#d9b23c" fill-opacity=".85"/><text x="50" y="399.5" class="p-c">A</text><text x="70" y="400" class="p-n">Gele lis <tspan class="p-l">Iris pseudacorus</tspan></text><text x="410" y="400" class="p-n" text-anchor="end">5 st.</text><circle cx="450" cy="396" r="10" fill="#b45a95" fill-opacity=".85"/><text x="450" y="399.5" class="p-c">B</text><text x="470" y="400" class="p-n">Kattenstaart <tspan class="p-l">Lythrum salicaria</tspan></text><text x="810" y="400" class="p-n" text-anchor="end">9 st.</text><circle cx="50" cy="430" r="10" fill="#a7a84f" fill-opacity=".85"/><text x="50" y="433.5" class="p-c">C</text><text x="70" y="434" class="p-n">Gele zegge <tspan class="p-l">Carex flava</tspan></text><text x="410" y="434" class="p-n" text-anchor="end">8 st.</text><circle cx="450" cy="430" r="10" fill="#7aa0cf" fill-opacity=".85"/><text x="450" y="433.5" class="p-c">D</text><text x="470" y="434" class="p-n">Moerasvergeet-mij-niet <tspan class="p-l">Myosotis scorpioides</tspan></text><text x="810" y="434" class="p-n" text-anchor="end">8 st.</text><circle cx="50" cy="464" r="10" fill="#5c6fb8" fill-opacity=".85"/><text x="50" y="467.5" class="p-c">E</text><text x="70" y="468" class="p-n">Ooievaarsbek <tspan class="p-l">Geranium ‘Rozanne’</tspan></text><text x="410" y="468" class="p-n" text-anchor="end">6 st.</text>
</svg>
