<svg xmlns="http://www.w3.org/2000/svg" viewBox="0 0 880 506" role="img" aria-label="Beplantingsplan Schaduwborder, 5 m², van boven">
<title>Beplantingsplan Schaduwborder</title>
<style>
.p-t{font:600 10.5px Montserrat,system-ui,sans-serif;letter-spacing:.12em;text-transform:uppercase;fill:var(--inkt,#202020)}
.p-k{font:700 22px Syne,system-ui,sans-serif;letter-spacing:-.02em;fill:var(--inkt,#202020)}
.p-n{font:500 13px Montserrat,system-ui,sans-serif;fill:var(--inkt,#202020);font-variant-numeric:tabular-nums}
.p-l{font-style:italic;fill:var(--gedempt,#5e5e5b)}
.p-c{font:700 10px Montserrat,system-ui,sans-serif;fill:#202020;text-anchor:middle}
.p-bed{fill:var(--bed,#e3ddd0);stroke:var(--inkt,#202020);stroke-width:1.3}
.p-lijn{stroke:var(--inkt,#202020);stroke-width:1.3;fill:none}
.p-maat{stroke:var(--inkt,#202020);stroke-width:.9;fill:none}
.p-water{stroke:#607a59;stroke-width:1.1;stroke-dasharray:14 6;fill:none}
.p-kei{fill:var(--vlak,#dcd9d2);stroke:var(--inkt,#202020);stroke-width:1}
.p-kroon{fill:none;stroke:var(--inkt,#202020);stroke-width:1;stroke-dasharray:3 5}
.p-stam{fill:var(--inkt,#202020)}
</style>
<text x="40" y="32" class="p-k">Schaduwborder</text>
<text x="840" y="30" class="p-t" text-anchor="end">Plan van boven · 5 m² · 35 planten</text>
<rect x="40" y="70" width="800" height="250" rx="6" class="p-bed"/>
<circle cx="338.3" cy="171.5" r="14" fill="#8fa35a" fill-opacity=".85"/><text x="338.3" y="175" class="p-c">D</text><circle cx="414.6" cy="275.5" r="14" fill="#b27a9a" fill-opacity=".85"/><text x="414.6" y="279" class="p-c">E</text><circle cx="554.2" cy="242" r="22" fill="#7f9b9a" fill-opacity=".85"/><text x="554.2" y="245.5" class="p-c">B</text><circle cx="776.5" cy="279.7" r="14" fill="#8fa35a" fill-opacity=".85"/><text x="776.5" y="283.2" class="p-c">D</text><circle cx="794.9" cy="146.2" r="14" fill="#d6a3b8" fill-opacity=".85"/><text x="794.9" y="149.7" class="p-c">C</text><circle cx="303.8" cy="266.1" r="22" fill="#7f9b9a" fill-opacity=".85"/><text x="303.8" y="269.6" class="p-c">B</text><circle cx="700" cy="150.8" r="20" fill="#4f7a4a" fill-opacity=".85"/><text x="700" y="154.3" class="p-c">A</text><circle cx="639.3" cy="170.3" r="20" fill="#4f7a4a" fill-opacity=".85"/><text x="639.3" y="173.8" class="p-c">A</text><circle cx="294.7" cy="101.3" r="14" fill="#d6a3b8" fill-opacity=".85"/><text x="294.7" y="104.8" class="p-c">C</text><circle cx="114.6" cy="224.8" r="14" fill="#b27a9a" fill-opacity=".85"/><text x="114.6" y="228.3" class="p-c">E</text><circle cx="115.5" cy="105.4" r="20" fill="#4f7a4a" fill-opacity=".85"/><text x="115.5" y="108.9" class="p-c">A</text><circle cx="400.4" cy="155.6" r="14" fill="#8fa35a" fill-opacity=".85"/><text x="400.4" y="159.1" class="p-c">D</text><circle cx="218.7" cy="98" r="14" fill="#d6a3b8" fill-opacity=".85"/><text x="218.7" y="101.5" class="p-c">C</text><circle cx="185.7" cy="246.2" r="22" fill="#7f9b9a" fill-opacity=".85"/><text x="185.7" y="249.7" class="p-c">B</text><circle cx="635.3" cy="260.3" r="22" fill="#7f9b9a" fill-opacity=".85"/><text x="635.3" y="263.8" class="p-c">B</text><circle cx="534" cy="129.1" r="20" fill="#4f7a4a" fill-opacity=".85"/><text x="534" y="132.6" class="p-c">A</text><circle cx="261.4" cy="196.4" r="22" fill="#7f9b9a" fill-opacity=".85"/><text x="261.4" y="199.9" class="p-c">B</text><circle cx="728.4" cy="207.3" r="22" fill="#7f9b9a" fill-opacity=".85"/><text x="728.4" y="210.8" class="p-c">B</text><circle cx="72.7" cy="171.6" r="20" fill="#4f7a4a" fill-opacity=".85"/><text x="72.7" y="175.1" class="p-c">A</text><circle cx="791.3" cy="222.2" r="14" fill="#8fa35a" fill-opacity=".85"/><text x="791.3" y="225.7" class="p-c">D</text><circle cx="460.5" cy="207" r="14" fill="#8fa35a" fill-opacity=".85"/><text x="460.5" y="210.5" class="p-c">D</text><circle cx="190.9" cy="186.1" r="22" fill="#7f9b9a" fill-opacity=".85"/><text x="190.9" y="189.6" class="p-c">B</text><circle cx="131.5" cy="164.2" r="20" fill="#4f7a4a" fill-opacity=".85"/><text x="131.5" y="167.7" class="p-c">A</text><circle cx="242.2" cy="289.6" r="22" fill="#7f9b9a" fill-opacity=".85"/><text x="242.2" y="293.1" class="p-c">B</text><circle cx="624.9" cy="107.7" r="20" fill="#4f7a4a" fill-opacity=".85"/><text x="624.9" y="111.2" class="p-c">A</text><circle cx="461" cy="135.3" r="14" fill="#8fa35a" fill-opacity=".85"/><text x="461" y="138.8" class="p-c">D</text><circle cx="367.2" cy="99.3" r="14" fill="#d6a3b8" fill-opacity=".85"/><text x="367.2" y="102.8" class="p-c">C</text><circle cx="484.3" cy="280.9" r="14" fill="#b27a9a" fill-opacity=".85"/><text x="484.3" y="284.4" class="p-c">E</text><circle cx="728.1" cy="99.6" r="14" fill="#d6a3b8" fill-opacity=".85"/><text x="728.1" y="103.1" class="p-c">C</text><circle cx="133.5" cy="281.5" r="14" fill="#b27a9a" fill-opacity=".85"/><text x="133.5" y="285" class="p-c">E</text><circle cx="701.9" cy="265" r="14" fill="#8fa35a" fill-opacity=".85"/><text x="701.9" y="268.5" class="p-c">D</text><circle cx="389.4" cy="213.7" r="14" fill="#8fa35a" fill-opacity=".85"/><text x="389.4" y="217.2" class="p-c">D</text><circle cx="70.3" cy="286" r="14" fill="#b27a9a" fill-opacity=".85"/><text x="70.3" y="289.5" class="p-c">E</text><circle cx="570.4" cy="180.9" r="22" fill="#7f9b9a" fill-opacity=".85"/><text x="570.4" y="184.4" class="p-c">B</text><circle cx="480.00000000000006" cy="165" r="124" class="p-kroon"/><circle cx="480.00000000000006" cy="165" r="5" class="p-stam"/>
<path d="M40 56H840M40 51v10M840 51v10" class="p-maat"/>
<text x="440" y="50" class="p-t" text-anchor="middle">4,00 m</text>
<path d="M26 70V320M21 70h10M21 320h10" class="p-maat"/>
<text x="20" y="195" class="p-t" text-anchor="middle" transform="rotate(-90 20 195)">1,25 m</text>
<text x="40" y="344" class="p-t">Voorkant · pad of gazon</text>
<circle cx="50" cy="376" r="10" fill="#4f7a4a" fill-opacity=".85"/><text x="50" y="379.5" class="p-c">A</text><text x="70" y="380" class="p-n">Mannetjesvaren <tspan class="p-l">Dryopteris filix-mas</tspan></text><text x="410" y="380" class="p-n" text-anchor="end">7 st.</text><circle cx="450" cy="376" r="10" fill="#7f9b9a" fill-opacity=".85"/><text x="450" y="379.5" class="p-c">B</text><text x="470" y="380" class="p-n">Hosta <tspan class="p-l">Hosta sieboldiana</tspan></text><text x="810" y="380" class="p-n" text-anchor="end">9 st.</text><circle cx="50" cy="410" r="10" fill="#d6a3b8" fill-opacity=".85"/><text x="50" y="413.5" class="p-c">C</text><text x="70" y="414" class="p-n">Herfstanemoon <tspan class="p-l">Anemone hupehensis</tspan></text><text x="410" y="414" class="p-n" text-anchor="end">5 st.</text><circle cx="450" cy="410" r="10" fill="#8fa35a" fill-opacity=".85"/><text x="450" y="413.5" class="p-c">D</text><text x="470" y="414" class="p-n">Bosgras <tspan class="p-l">Luzula sylvatica</tspan></text><text x="810" y="414" class="p-n" text-anchor="end">8 st.</text><circle cx="50" cy="444" r="10" fill="#b27a9a" fill-opacity=".85"/><text x="50" y="447.5" class="p-c">E</text><text x="70" y="448" class="p-n">Ooievaarsbek <tspan class="p-l">Geranium macrorrhizum</tspan></text><text x="410" y="448" class="p-n" text-anchor="end">5 st.</text><circle cx="450" cy="444" r="9" class="p-kroon"/><circle cx="450" cy="444" r="2.5" class="p-stam"/><text x="470" y="448" class="p-n">Krentenboom <tspan class="p-l">Amelanchier lamarckii</tspan></text><text x="810" y="448" class="p-n" text-anchor="end">1 st.</text>
</svg>
